<svg width="9" height="24" viewBox="0 0 9 24" fill="none" xmlns="http://www.w3.org/2000/svg">
  <path d="M2 13.5575C2 13.6978 2.05289 13.8382 2.16623 13.9489L4.10049 15.8394C4.31961 16.0535 4.68228 16.0535 4.9014 15.8394L6.83566 13.9489C7.05478 13.7348 7.05478 13.3803 6.83566 13.1662C6.61655 12.952 6.25387 12.952 6.03476 13.1662L4.50094 14.6578L2.96713 13.1662C2.74802 12.9446 2.38534 12.9446 2.16623 13.1662C2.05289 13.2695 2 13.4098 2 13.5575Z" fill="#8B9CB5"/>
  <path d="M2 10.4425C2 10.3022 2.05289 10.1618 2.16623 10.0511L4.10049 8.16062C4.31961 7.94646 4.68228 7.94646 4.9014 8.16062L6.83566 10.0511C7.05478 10.2652 7.05478 10.6197 6.83566 10.8338C6.61655 11.048 6.25387 11.048 6.03476 10.8338L4.50094 9.34215L2.96713 10.8338C2.74802 11.0554 2.38534 11.0554 2.16623 10.8338C2.05289 10.7305 2 10.5902 2 10.4425Z" fill="#8B9CB5"/>
</svg>