<svg width="80" height="80" viewBox="0 0 80 80" fill="none" xmlns="http://www.w3.org/2000/svg">
<path fill-rule="evenodd" clip-rule="evenodd" d="M78.0888 37.3437C79.4137 38.8533 79.4137 41.1114 78.0888 42.6209L72.5774 48.9003C71.8528 49.7259 71.4995 50.8131 71.6006 51.9069L72.3685 60.2187C72.5532 62.217 71.2285 64.0428 69.2715 64.4873L61.1062 66.342C60.0368 66.585 59.114 67.2563 58.5537 68.199L54.2818 75.3867C53.2561 77.1126 51.1098 77.8107 49.265 77.0185L41.5843 73.7203C40.5734 73.2862 39.4284 73.2876 38.4186 73.7242L30.7408 77.0437C28.8945 77.842 26.7426 77.145 25.7149 75.4158L21.4475 68.2357C20.8872 67.293 19.9644 66.6217 18.895 66.3788L10.7288 64.5238C8.7722 64.0794 7.4476 62.2542 7.63169 60.2562L8.40105 51.9064C8.50181 50.8129 8.14859 49.7261 7.42421 48.9008L1.90827 42.6162C0.585098 41.1087 0.583094 38.8542 1.90358 37.3443L7.4289 31.0264C8.15041 30.2014 8.50179 29.1165 8.40096 28.0252L7.6335 19.7185C7.4485 17.7162 8.77875 15.8878 10.7408 15.4476L18.8879 13.6196C19.9615 13.3787 20.8885 12.7062 21.4507 11.7603L25.7194 4.578C26.7451 2.8521 28.8914 2.154 30.7362 2.94619L38.4223 6.2467C39.43 6.67942 40.5712 6.67942 41.5789 6.2467L49.265 2.94619C51.1098 2.154 53.2561 2.8521 54.2818 4.578L58.5537 11.7656C59.114 12.7084 60.0368 13.3797 61.1062 13.6226L69.2715 15.4773C71.2285 15.9219 72.5532 17.7477 72.3685 19.746L71.6006 28.0577C71.4995 29.1515 71.8528 30.2388 72.5774 31.0643L78.0888 37.3437ZM39.9723 50.4498C37.2219 50.4498 35.0434 52.5126 35.0434 55.3787C35.0434 58.2448 37.2219 60.3672 39.9723 60.3672C42.7822 60.3672 44.9607 58.2448 44.9607 55.3787C44.9607 52.5126 42.7822 50.4498 39.9723 50.4498ZM36.6161 19.1782C36.8211 19.0904 37.0418 19.045 37.2648 19.0448H42.7359C42.9592 19.0446 43.1803 19.0896 43.3857 19.1772C43.5912 19.2648 43.7767 19.3931 43.9312 19.5543C44.0857 19.7156 44.2059 19.9065 44.2845 20.1155C44.3632 20.3245 44.3987 20.5473 44.3888 20.7704L43.3806 43.9109C43.3618 44.3366 43.1794 44.7386 42.8715 45.033C42.5635 45.3274 42.1537 45.4915 41.7277 45.4911H38.2797C37.8537 45.4915 37.4439 45.3274 37.1359 45.033C36.828 44.7386 36.6456 44.3366 36.6268 43.9109L35.6153 20.7704C35.6054 20.5476 35.6408 20.3251 35.7193 20.1163C35.7977 19.9075 35.9176 19.7168 36.0718 19.5555C36.2259 19.3943 36.411 19.266 36.6161 19.1782Z" fill="white"/>
<path fill-rule="evenodd" clip-rule="evenodd" d="M35.0435 55.3791C35.0435 52.513 37.222 50.4502 39.9724 50.4502C42.7823 50.4502 44.9608 52.513 44.9608 55.3791C44.9608 58.2452 42.7823 60.3675 39.9724 60.3675C37.222 60.3675 35.0435 58.2452 35.0435 55.3791ZM37.2649 19.0452C37.0419 19.0454 36.8212 19.0908 36.6162 19.1785C36.4111 19.2663 36.226 19.3947 36.0719 19.5559C35.9177 19.7171 35.7978 19.9079 35.7194 20.1167C35.6409 20.3255 35.6055 20.548 35.6154 20.7708L36.6269 43.9113C36.6457 44.337 36.8281 44.7389 37.136 45.0333C37.444 45.3278 37.8538 45.4919 38.2798 45.4915H41.7278C42.1538 45.4919 42.5636 45.3278 42.8716 45.0333C43.1795 44.7389 43.3619 44.337 43.3807 43.9113L44.3889 20.7708C44.3988 20.5477 44.3633 20.3249 44.2846 20.1159C44.206 19.9069 44.0858 19.716 43.9313 19.5547C43.7768 19.3934 43.5913 19.2651 43.3858 19.1776C43.1804 19.09 42.9593 19.045 42.736 19.0452H37.2649Z" fill="#FF6666"/>
</svg>
