<svg width="24" height="24" viewBox="0 0 24 24" fill="none" xmlns="http://www.w3.org/2000/svg">
<g id="vuesax/bulk/filter">
<g id="filter">
<path id="Vector" opacity="0.4" d="M20.5996 4.09998V6.29998C20.5996 7.09998 20.0996 8.09998 19.5996 8.59998L15.2996 12.4C14.6996 12.9 14.2996 13.9 14.2996 14.7V19C14.2996 19.6 13.8996 20.4 13.3996 20.7L11.9996 21.6C10.6996 22.4 8.89961 21.5 8.89961 19.9V14.6C8.89961 13.9 8.49961 13 8.09961 12.5L7.09961 11.45L12.9196 2.09998H18.5996C19.6996 2.09998 20.5996 2.99998 20.5996 4.09998Z" fill="#3F3F41"/>
<path id="Vector_2" d="M11.3004 2.09998L6.12039 10.41L4.30039 8.49998C3.80039 7.99998 3.40039 7.09998 3.40039 6.49998V4.19998C3.40039 2.99998 4.30039 2.09998 5.40039 2.09998H11.3004Z" fill="#3F3F41"/>
</g>
</g>
</svg>
