<svg width="148" height="30" viewBox="0 0 148 30" fill="none" xmlns="http://www.w3.org/2000/svg">
<path fill-rule="evenodd" clip-rule="evenodd" d="M24.5 15C24.5 21.6274 19.1274 27 12.5 27C5.8726 27 0.5 21.6274 0.5 15C0.5 8.3726 5.8726 3 12.5 3C19.1274 3 24.5 8.3726 24.5 15ZM8.53575 13.9008C7.33365 14.4256 6.09855 14.9649 4.96913 15.587C4.37939 16.0188 5.16319 16.3243 5.89855 16.6108C6.01545 16.6563 6.1311 16.7014 6.23985 16.7464C6.33035 16.7742 6.42235 16.8035 6.5156 16.8332C7.33345 17.0938 8.24535 17.3843 9.03935 16.9473C10.3437 16.198 11.5745 15.3318 12.8045 14.4662C13.2074 14.1826 13.6103 13.8991 14.0156 13.6199C14.0346 13.6077 14.056 13.5938 14.0794 13.5786C14.4247 13.3548 15.2012 12.8514 14.9139 13.545C14.2347 14.2878 13.5072 14.9454 12.7757 15.6065C12.2827 16.0521 11.788 16.4993 11.305 16.9753C10.8843 17.317 10.4474 18.0044 10.9185 18.483C12.0035 19.2425 13.1054 19.9837 14.2066 20.7243C14.5649 20.9653 14.9233 21.2064 15.2809 21.448C15.887 21.9319 16.8343 21.5404 16.9675 20.7843C17.0268 20.4364 17.0863 20.0886 17.1458 19.7407C17.4746 17.8184 17.8034 15.8954 18.094 13.9668C18.1335 13.6642 18.1782 13.3617 18.223 13.059C18.3316 12.3255 18.4403 11.5911 18.4743 10.8535C18.3868 10.1175 17.4943 10.2794 16.9977 10.4449C14.4451 11.4162 11.918 12.4595 9.40095 13.5212C9.1158 13.6475 8.82675 13.7737 8.53575 13.9008Z" fill="#1CA9FF"/>
<path d="M44.4278 5.9375V23H40.3145V5.9375H44.4278ZM49.5606 5.9375V9.11328H35.2989V5.9375H49.5606ZM64.4556 13.8828V20.8906C64.1666 21.2109 63.7212 21.5547 63.1197 21.9219C62.5259 22.2812 61.7759 22.5898 60.8697 22.8477C59.9634 23.1055 58.897 23.2344 57.6705 23.2344C56.5377 23.2344 55.5103 23.0547 54.5884 22.6953C53.6666 22.3281 52.8736 21.793 52.2095 21.0898C51.5533 20.3789 51.0455 19.5117 50.6861 18.4883C50.3345 17.457 50.1587 16.2773 50.1587 14.9492V14C50.1587 12.6719 50.3384 11.4922 50.6978 10.4609C51.0572 9.42969 51.5611 8.5625 52.2095 7.85938C52.8658 7.14844 53.6353 6.60937 54.5181 6.24219C55.4087 5.875 56.3853 5.69141 57.4478 5.69141C59.0181 5.69141 60.2955 5.94141 61.2798 6.44141C62.2642 6.93359 63.0103 7.61719 63.5181 8.49219C64.0259 9.35938 64.3345 10.3633 64.4439 11.5039H60.4947C60.4166 10.9414 60.2681 10.4648 60.0494 10.0742C59.8384 9.67578 59.5337 9.375 59.1353 9.17188C58.7369 8.96094 58.2212 8.85547 57.5884 8.85547C57.0962 8.85547 56.647 8.96094 56.2408 9.17188C55.8423 9.38281 55.5025 9.70312 55.2212 10.1328C54.94 10.5547 54.7212 11.0859 54.565 11.7266C54.4166 12.3672 54.3423 13.1172 54.3423 13.9766V14.9492C54.3423 15.8008 54.4127 16.5469 54.5533 17.1875C54.7017 17.8281 54.9205 18.3633 55.2095 18.793C55.5064 19.2148 55.8814 19.5352 56.3345 19.7539C56.7955 19.9648 57.3384 20.0703 57.9634 20.0703C58.4009 20.0703 58.7759 20.0352 59.0884 19.9648C59.4009 19.8867 59.6587 19.793 59.8619 19.6836C60.0728 19.5664 60.233 19.457 60.3423 19.3555V16.707H57.483V13.8828H64.4556Z" fill="#1CA9FF"/>
<path d="M71.7222 5H75.6714V19.8828L75.2612 23H71.7222V5ZM83.4527 16.5195V16.7656C83.4527 17.7266 83.355 18.6016 83.1597 19.3906C82.9644 20.1797 82.6636 20.8633 82.2573 21.4414C81.8511 22.0117 81.3394 22.4531 80.7222 22.7656C80.105 23.0781 79.3745 23.2344 78.5308 23.2344C77.7652 23.2344 77.1089 23.0703 76.562 22.7422C76.0152 22.4062 75.5581 21.9453 75.1909 21.3594C74.8237 20.7656 74.5269 20.082 74.3003 19.3086C74.0737 18.5273 73.8941 17.6914 73.7612 16.8008V16.5078C73.8941 15.625 74.0737 14.7969 74.3003 14.0234C74.5269 13.2422 74.8237 12.5586 75.1909 11.9727C75.5581 11.3789 76.0112 10.918 76.5503 10.5898C77.0972 10.2539 77.7495 10.0859 78.5073 10.0859C79.3589 10.0859 80.0933 10.2461 80.7105 10.5664C81.3355 10.8867 81.8511 11.3359 82.2573 11.9141C82.6636 12.4922 82.9644 13.1719 83.1597 13.9531C83.355 14.7344 83.4527 15.5898 83.4527 16.5195ZM79.5034 16.7656V16.5195C79.5034 16.0586 79.4761 15.625 79.4214 15.2188C79.3667 14.8125 79.2691 14.4531 79.1284 14.1406C78.9878 13.8281 78.7886 13.582 78.5308 13.4023C78.273 13.2227 77.937 13.1328 77.523 13.1328C77.1011 13.1328 76.7456 13.2031 76.4566 13.3438C76.1753 13.4844 75.9487 13.6875 75.7769 13.9531C75.6128 14.2109 75.4956 14.5312 75.4253 14.9141C75.355 15.2891 75.3237 15.7148 75.3316 16.1914V17.1172C75.3159 17.7656 75.3745 18.3203 75.5073 18.7812C75.6402 19.2422 75.8706 19.5938 76.1987 19.8359C76.5269 20.0781 76.9761 20.1992 77.5464 20.1992C77.9683 20.1992 78.3081 20.1172 78.5659 19.9531C78.8316 19.7891 79.0308 19.5547 79.1636 19.25C79.2964 18.9453 79.3862 18.582 79.4331 18.1602C79.48 17.7383 79.5034 17.2734 79.5034 16.7656ZM91.3164 19.8125V14.5859C91.3164 14.2266 91.2656 13.918 91.1641 13.6602C91.0625 13.4023 90.9023 13.2031 90.6836 13.0625C90.4648 12.9141 90.1719 12.8398 89.8047 12.8398C89.5078 12.8398 89.2539 12.8906 89.043 12.9922C88.832 13.0938 88.6719 13.2461 88.5625 13.4492C88.4531 13.6523 88.3984 13.9102 88.3984 14.2227H84.4492C84.4492 13.6367 84.5781 13.0938 84.8359 12.5938C85.1016 12.0859 85.4766 11.6445 85.9609 11.2695C86.4531 10.8945 87.0391 10.6055 87.7188 10.4023C88.4062 10.1914 89.1719 10.0859 90.0156 10.0859C91.0234 10.0859 91.9219 10.2539 92.7109 10.5898C93.5078 10.9258 94.1367 11.4297 94.5977 12.1016C95.0586 12.7656 95.2891 13.6016 95.2891 14.6094V19.8008C95.2891 20.6289 95.3359 21.2578 95.4297 21.6875C95.5234 22.1094 95.6562 22.4805 95.8281 22.8008V23H91.8672C91.6797 22.6094 91.5391 22.1328 91.4453 21.5703C91.3594 21 91.3164 20.4141 91.3164 19.8125ZM91.7969 15.2539L91.8203 17.3633H90.0742C89.707 17.3633 89.3945 17.4141 89.1367 17.5156C88.8867 17.6172 88.6836 17.7578 88.5273 17.9375C88.3789 18.1094 88.2695 18.3047 88.1992 18.5234C88.1367 18.7422 88.1055 18.9727 88.1055 19.2148C88.1055 19.4492 88.1602 19.6602 88.2695 19.8477C88.3867 20.0273 88.543 20.168 88.7383 20.2695C88.9336 20.3711 89.1523 20.4219 89.3945 20.4219C89.832 20.4219 90.2031 20.3398 90.5078 20.1758C90.8203 20.0039 91.0586 19.7969 91.2227 19.5547C91.3867 19.3125 91.4688 19.0859 91.4688 18.875L92.3359 20.4922C92.1797 20.8047 92 21.1211 91.7969 21.4414C91.6016 21.7617 91.3555 22.0586 91.0586 22.332C90.7695 22.5977 90.4141 22.8164 89.9922 22.9883C89.5703 23.1523 89.0586 23.2344 88.457 23.2344C87.6758 23.2344 86.957 23.0742 86.3008 22.7539C85.6523 22.4336 85.1328 21.9883 84.7422 21.418C84.3516 20.8398 84.1562 20.1758 84.1562 19.4258C84.1562 18.7695 84.2734 18.1836 84.5078 17.668C84.75 17.1523 85.1133 16.7148 85.5977 16.3555C86.082 15.9961 86.6992 15.7227 87.4492 15.5352C88.1992 15.3477 89.082 15.2539 90.0977 15.2539H91.7969ZM102.356 20.1875C102.723 20.1875 103.036 20.1211 103.293 19.9883C103.559 19.8477 103.758 19.6523 103.891 19.4023C104.032 19.1445 104.098 18.8359 104.09 18.4766H107.805C107.813 19.4297 107.579 20.2656 107.102 20.9844C106.633 21.6953 105.993 22.25 105.18 22.6484C104.375 23.0391 103.465 23.2344 102.45 23.2344C101.457 23.2344 100.59 23.0742 99.8481 22.7539C99.1059 22.4258 98.4848 21.9727 97.9848 21.3945C97.4927 20.8086 97.1216 20.125 96.8716 19.3438C96.6294 18.5625 96.5083 17.7148 96.5083 16.8008V16.5312C96.5083 15.6172 96.6294 14.7695 96.8716 13.9883C97.1216 13.1992 97.4927 12.5156 97.9848 11.9375C98.4848 11.3516 99.102 10.8984 99.8364 10.5781C100.579 10.25 101.442 10.0859 102.426 10.0859C103.481 10.0859 104.411 10.2852 105.215 10.6836C106.028 11.082 106.665 11.6602 107.125 12.418C107.586 13.1758 107.813 14.0938 107.805 15.1719H104.09C104.098 14.7891 104.04 14.4453 103.915 14.1406C103.79 13.8359 103.594 13.5938 103.329 13.4141C103.071 13.2266 102.739 13.1328 102.332 13.1328C101.926 13.1328 101.598 13.2227 101.348 13.4023C101.098 13.582 100.907 13.832 100.774 14.1523C100.649 14.4648 100.563 14.8242 100.516 15.2305C100.477 15.6367 100.457 16.0703 100.457 16.5312V16.8008C100.457 17.2695 100.477 17.7109 100.516 18.125C100.563 18.5312 100.653 18.8906 100.786 19.2031C100.918 19.5078 101.11 19.75 101.36 19.9297C101.61 20.1016 101.942 20.1875 102.356 20.1875ZM112.997 4.98828V23H109.048V4.98828H112.997ZM121.106 10.3203L115.599 16.7773L112.716 19.6602L110.993 17.1523L113.395 14.0234L116.372 10.3203H121.106ZM116.876 23L113.489 17.2227L116.407 15.1484L121.399 23H116.876ZM129.064 19.918V10.3203H133.025V23H129.322L129.064 19.918ZM129.439 17.3398L130.47 17.3164C130.47 18.168 130.369 18.957 130.165 19.6836C129.962 20.4023 129.662 21.0273 129.263 21.5586C128.872 22.0898 128.388 22.5039 127.81 22.8008C127.24 23.0898 126.58 23.2344 125.83 23.2344C125.205 23.2344 124.63 23.1484 124.107 22.9766C123.591 22.7969 123.146 22.5195 122.771 22.1445C122.396 21.7617 122.103 21.2734 121.892 20.6797C121.689 20.0781 121.587 19.3594 121.587 18.5234V10.3203H125.537V18.5469C125.537 18.8281 125.572 19.0703 125.642 19.2734C125.712 19.4766 125.814 19.6484 125.947 19.7891C126.08 19.9219 126.244 20.0234 126.439 20.0938C126.642 20.1562 126.872 20.1875 127.13 20.1875C127.724 20.1875 128.189 20.0625 128.525 19.8125C128.861 19.5625 129.095 19.2227 129.228 18.793C129.369 18.3633 129.439 17.8789 129.439 17.3398ZM138.709 12.7578V27.875H134.76V10.3203H138.439L138.709 12.7578ZM146.49 16.5078V16.7539C146.49 17.6758 146.385 18.5312 146.174 19.3203C145.963 20.1094 145.65 20.7969 145.236 21.3828C144.822 21.9688 144.307 22.4258 143.689 22.7539C143.08 23.0742 142.373 23.2344 141.568 23.2344C140.81 23.2344 140.158 23.0664 139.611 22.7305C139.064 22.3945 138.607 21.9297 138.24 21.3359C137.873 20.7422 137.576 20.0625 137.35 19.2969C137.123 18.5312 136.943 17.7227 136.81 16.8711V16.5547C136.943 15.6406 137.123 14.793 137.35 14.0117C137.576 13.2227 137.873 12.5352 138.24 11.9492C138.607 11.3633 139.06 10.9062 139.6 10.5781C140.146 10.25 140.799 10.0859 141.557 10.0859C142.361 10.0859 143.068 10.2383 143.678 10.543C144.295 10.8477 144.81 11.2852 145.225 11.8555C145.646 12.418 145.963 13.0938 146.174 13.8828C146.385 14.6719 146.49 15.5469 146.49 16.5078ZM142.541 16.7539V16.5078C142.541 16.0156 142.506 15.5664 142.435 15.1602C142.365 14.7461 142.252 14.3867 142.096 14.082C141.947 13.7773 141.748 13.543 141.498 13.3789C141.248 13.2148 140.939 13.1328 140.572 13.1328C140.15 13.1328 139.795 13.1992 139.506 13.332C139.225 13.457 138.998 13.6523 138.826 13.918C138.662 14.1758 138.545 14.5 138.475 14.8906C138.412 15.2734 138.385 15.7227 138.393 16.2383V17.1992C138.377 17.793 138.435 18.3164 138.568 18.7695C138.701 19.2148 138.932 19.5625 139.26 19.8125C139.588 20.0625 140.033 20.1875 140.596 20.1875C140.971 20.1875 141.283 20.1016 141.533 19.9297C141.783 19.75 141.982 19.5039 142.131 19.1914C142.279 18.8711 142.385 18.5039 142.447 18.0898C142.51 17.6758 142.541 17.2305 142.541 16.7539Z" fill="#2F3C4E"/>
</svg>
