<svg width="24" height="24" viewBox="0 0 24 24" fill="none" xmlns="http://www.w3.org/2000/svg">
  <path d="M9.40137 6.19902C9.35325 5.41577 9.80556 3.55554 11.9998 3.55554C14.194 3.55554 14.5982 5.46472 14.5982 6.19902V11.486C14.6463 12.2692 14.194 14.1295 11.9998 14.1295C9.80556 14.1295 9.40137 12.2203 9.40137 11.486L9.40137 6.19902Z" fill="white"/>
  <path d="M11.1336 17.8252V19.5633C11.1336 20.0499 11.5214 20.4444 11.9998 20.4444C12.4781 20.4444 12.8659 20.0499 12.8659 19.5633V17.8252C12.8659 17.8118 12.8764 17.8009 12.8895 17.8008C14.5709 17.7832 17.7035 15.8619 17.7776 12.5614C17.7824 12.3448 17.6789 12.1425 17.5126 12.0072L17.5035 11.9998C17.2399 11.7852 16.8653 11.7852 16.6017 11.9998C16.4304 12.1391 16.3346 12.351 16.3169 12.5733C16.1388 14.8048 14.2737 16.2292 11.9998 16.2292C9.72577 16.2292 7.86114 14.8049 7.68303 12.5734C7.66528 12.351 7.56945 12.1392 7.39823 11.9998C7.13462 11.7853 6.76004 11.7853 6.49643 11.9998L6.48732 12.0072C6.32102 12.1426 6.21747 12.3449 6.22233 12.5615C6.2964 15.8619 9.42895 17.7832 11.1104 17.8008C11.1235 17.801 11.1336 17.8118 11.1336 17.8252Z" fill="white"/>
</svg>