<svg width="24" height="24" viewBox="0 0 24 24" fill="none" xmlns="http://www.w3.org/2000/svg">
<g id="Filled / Phone Icon">
<path id="Vector" d="M8.48421 4.33378L8.88631 7.57522C8.94255 8.02863 8.78793 8.48278 8.46728 8.80589L7.37659 9.90492C6.94952 10.3352 6.91553 11.0216 7.29798 11.4926L8.32252 12.7545C8.95024 13.5275 9.68866 14.2022 10.5135 14.7562L11.9656 15.7318C12.4446 16.0535 13.0843 15.9785 13.4771 15.5544L14.5226 14.4256C14.7286 14.2033 15.0331 14.1026 15.3297 14.1586L18.8365 14.8211C19.2535 14.8999 19.5557 15.2668 19.5557 15.6943V18.699C19.5557 19.1736 19.1883 19.5671 18.7173 19.5553C13.3504 19.4212 4.02034 15.835 3.55639 4.44852C3.53641 3.95827 3.93316 3.55554 4.4201 3.55554H7.60935C8.054 3.55554 8.42906 3.88919 8.48421 4.33378Z" fill="white"/>
</g>
</svg>
