<svg width="80" height="80" viewBox="0 0 80 80" fill="none" xmlns="http://www.w3.org/2000/svg">
<rect width="80" height="80" rx="40" fill="white"/>
<path d="M32.1608 55.6742C33.2039 56.9411 34.2098 57.5 35.4765 57.5C36.7431 57.5 37.7863 56.9038 38.6059 55.6742L57.5686 25.8283C58.0157 25.0831 58.5 24.1888 58.5 23.3691C58.5 21.5806 56.9353 20.5 55.2961 20.5C54.2902 20.5 53.3216 21.0589 52.6137 22.214L35.2902 49.9733L26.3863 38.4597C25.5294 37.3046 24.598 36.8948 23.5549 36.8948C21.8784 36.8948 20.5 38.2362 20.5 39.9874C20.5 40.8072 20.8353 41.7014 21.3941 42.4094L32.1608 55.6742Z" fill="#5CDC5C"/>
</svg>
