<?xml version="1.0" standalone="no"?>
<!DOCTYPE svg PUBLIC "-//W3C//DTD SVG 20010904//EN"
 "http://www.w3.org/TR/2001/REC-SVG-20010904/DTD/svg10.dtd">
<svg version="1.0" xmlns="http://www.w3.org/2000/svg"
 width="512.000000pt" height="512.000000pt" viewBox="0 0 512.000000 512.000000"
 preserveAspectRatio="xMidYMid meet">
<metadata>
Created by potrace 1.14, written by Peter Selinger 2001-2017
</metadata>
<g transform="translate(0.000000,512.000000) scale(0.100000,-0.100000)"
fill="#000000" stroke="none">
<path d="M0 2560 l0 -2560 2560 0 2560 0 0 2560 0 2560 -2560 0 -2560 0 0
-2560z m1944 877 c203 -48 332 -169 383 -358 23 -88 23 -319 0 -407 -52 -196
-168 -308 -376 -364 -69 -19 -112 -21 -443 -26 l-368 -4 0 -264 0 -264 -250 0
-250 0 0 856 0 855 618 -4 c527 -3 627 -6 686 -20z m2154 0 c216 -58 310 -183
300 -400 -6 -144 -59 -239 -164 -299 l-53 -30 68 -34 c155 -77 231 -217 231
-423 -1 -210 -82 -362 -234 -436 -126 -61 -105 -59 -893 -63 l-723 -3 0 856 0
856 703 -4 c618 -3 710 -6 765 -20z"/>
<path d="M1140 2870 l0 -160 285 0 c308 0 327 3 375 54 19 21 25 40 28 90 6
85 -16 132 -72 157 -37 17 -70 19 -328 19 l-288 0 0 -160z"/>
<path d="M3150 2950 l0 -120 325 0 c271 0 331 3 355 15 39 20 50 43 50 108 0
45 -4 59 -25 79 -14 14 -39 28 -56 32 -18 3 -170 6 -340 6 l-309 0 0 -120z"/>
<path d="M3150 2295 l0 -145 335 0 c282 0 341 2 374 16 57 23 75 55 76 136 0
63 -2 70 -33 100 l-32 33 -360 3 -360 3 0 -146z"/>
</g>
</svg>
